<svg id="Layer_1" data-name="Layer 1" xmlns="http://www.w3.org/2000/svg" xmlns:xlink="http://www.w3.org/1999/xlink" viewBox="0 0 351.82 262.65"><defs><style>.cls-1{fill:url(#linear-gradient);}.cls-2{fill:url(#linear-gradient-2);}.cls-3{fill:url(#linear-gradient-3);}.cls-4{fill:url(#linear-gradient-4);}.cls-5{fill:url(#linear-gradient-5);}.cls-6{fill:url(#linear-gradient-6);}.cls-7{fill:url(#linear-gradient-7);}.cls-8{fill:url(#linear-gradient-8);}</style><linearGradient id="linear-gradient" x1="547.68" y1="272.13" x2="547.68" y2="643.77" gradientUnits="userSpaceOnUse"><stop offset="0" stop-color="#ddc18e"/><stop offset="1" stop-color="#b1915d"/></linearGradient><linearGradient id="linear-gradient-2" x1="252.32" y1="272.13" x2="252.32" y2="643.77" xlink:href="#linear-gradient"/><linearGradient id="linear-gradient-3" x1="491.5" y1="272.13" x2="491.5" y2="643.77" xlink:href="#linear-gradient"/><linearGradient id="linear-gradient-4" x1="308.5" y1="272.13" x2="308.5" y2="643.77" xlink:href="#linear-gradient"/><linearGradient id="linear-gradient-5" x1="400" y1="272.13" x2="400" y2="643.77" xlink:href="#linear-gradient"/><linearGradient id="linear-gradient-6" x1="400" y1="272.13" x2="400" y2="643.76" xlink:href="#linear-gradient"/><linearGradient id="linear-gradient-7" x1="400" y1="272.13" x2="400" y2="643.77" xlink:href="#linear-gradient"/><linearGradient id="linear-gradient-8" x1="400" y1="272.13" x2="400" y2="643.77" xlink:href="#linear-gradient"/></defs><path class="cls-1" d="M570.58,448.37c1.8,2,2.22,13.86-5.16,18.75-9.15,6.08-20.21,2.54-36.65-2.34-2.94-.87-6.06-1.79-9.33-2.71a38.23,38.23,0,0,1,.5,7.62c8.89,2.56,22.19,7.34,25.95,16.53,1.76,4.3.62,13.27-11.32,13.63,21.65,2.36,23.56-14.38,13.68-22.81,7.6,1,15.43,2.39,21.61-2.17C579.75,467.56,575.68,454.12,570.58,448.37Z" transform="translate(-224.09 -268.67)"/><path class="cls-2" d="M229.42,448.37c-1.8,2-2.22,13.86,5.16,18.75,9.15,6.08,20.21,2.54,36.65-2.34,2.94-.87,6.06-1.79,9.33-2.71a38.23,38.23,0,0,0-.5,7.62c-8.89,2.56-22.19,7.34-25.95,16.53-1.76,4.3-.62,13.27,11.32,13.63-21.65,2.36-23.56-14.38-13.68-22.81-7.6,1-15.43,2.39-21.61-2.17C220.25,467.56,224.32,454.12,229.42,448.37Z" transform="translate(-224.09 -268.67)"/><path class="cls-3" d="M480.37,367.69c3.15-3.17,2.2-13.18-8.36-17-.25-.09,11.5,8.23-.7,24l0,0a28.93,28.93,0,0,0-2.42,3.13l-.22.34c-13.34,20.27,1.48,39.76,19.51,57.51a30.34,30.34,0,0,1-1.65-12.07c-15.05-17.27-18.41-30.92-11.23-41.61,13.91-20.7,44.55-10.67,39.74,10.31a25.42,25.42,0,0,0,4-9.1C522.48,366.93,501.16,354.93,480.37,367.69Z" transform="translate(-224.09 -268.67)"/><path class="cls-4" d="M319.63,367.69c-3.15-3.17-2.2-13.18,8.36-17,.25-.09-11.5,8.23.7,24l0,0a28.93,28.93,0,0,1,2.42,3.13l.22.34c13.34,20.27-1.48,39.76-19.51,57.51a30.34,30.34,0,0,0,1.65-12.07c15.05-17.27,18.41-30.92,11.23-41.61-13.91-20.7-44.55-10.67-39.74,10.31a25.42,25.42,0,0,1-4-9.1C277.52,366.93,298.84,354.93,319.63,367.69Z" transform="translate(-224.09 -268.67)"/><path class="cls-5" d="M400,502.21a211.93,211.93,0,0,1,20.71-20.78h0l.1-.08c.85-.72,1.71-1.44,2.6-2.15l.05,0a97.4,97.4,0,0,1,8.06-5.89h0c13.66-8.82,28.47-12.92,44.74-11.8a187.08,187.08,0,0,1,31.21,4.87,21.16,21.16,0,0,1-1.72,10.54c-4.19,9.1-15.26,13-31.18,10.91a145.84,145.84,0,0,1-38.29-10.74l-6.77,5A156.64,156.64,0,0,0,473.68,495a66.07,66.07,0,0,0,8.56.58c14.6,0,25.32-5.48,30-15.6a25.91,25.91,0,0,0,2-6.68,35.91,35.91,0,0,0-.55-12.91,47.55,47.55,0,0,0-11.1-20.65c-2.72-3.66-3.57-4.79-4.08-7.16-3.51-16.3,13.36-21.24,23.09-17.68-10.14-10.26-35-3.68-30.63,17,.88,4.16,2.55,7.84,6.7,13.07h0a42,42,0,0,1,8.14,13.58,191,191,0,0,0-29-4.27c-2.37-.17-4.69-.22-6.95-.19,6.64-9.94-3.15-20.62-13.47-16.94.05.07,9-.07,8.87,10-.05,3.34-2.39,7.13-8,8.15a83.09,83.09,0,0,0-34.4,15.33,170.27,170.27,0,0,1-17.06-10.35c34.52-19.66,48.7-53.79,48.7-53.79-1.94-39.37,9.74-48,9.74-48-27.8-7.72-31.12-32.8-31.12-32.8a152.5,152.5,0,0,0-66.06,0s-3.32,25.08-31.12,32.8c0,0,11.68,8.62,9.74,48,0,0,14.18,34.13,48.7,53.79a170.27,170.27,0,0,1-17.06,10.35,83.09,83.09,0,0,0-34.4-15.33c-5.64-1-8-4.81-8-8.15-.16-10.09,8.82-9.95,8.87-10-10.32-3.68-20.11,7-13.47,16.94-2.26,0-4.58,0-6.95.19a191,191,0,0,0-29,4.27A42,42,0,0,1,302.37,445h0c4.15-5.23,5.82-8.91,6.7-13.07,4.37-20.68-20.49-27.26-30.63-17,9.73-3.56,26.6,1.38,23.09,17.68-.51,2.37-1.36,3.5-4.08,7.16a47.55,47.55,0,0,0-11.1,20.65,35.91,35.91,0,0,0-.55,12.91,25.91,25.91,0,0,0,2,6.68c4.66,10.12,15.38,15.6,30,15.6a66.07,66.07,0,0,0,8.56-.58,156.64,156.64,0,0,0,44.16-12.91l-6.77-5a145.84,145.84,0,0,1-38.29,10.74c-15.92,2.07-27-1.81-31.18-10.91a21.16,21.16,0,0,1-1.72-10.54,187.08,187.08,0,0,1,31.21-4.87c16.27-1.12,31.08,3,44.74,11.8h0a97.4,97.4,0,0,1,8.06,5.89l.05,0c.89.71,1.75,1.43,2.59,2.15l.11.08h0A211.93,211.93,0,0,1,400,502.21Zm0-172.85a139.23,139.23,0,0,1,27.15,2.48,48.63,48.63,0,0,0,25.32,30c-.22.45-.43.92-.64,1.42-3.93,9.37-5.48,23.46-4.63,41.89-3.09,6.54-17.55,34.24-47.2,50.11-29.65-15.87-44.11-43.57-47.2-50.11.85-18.43-.7-32.52-4.63-41.89-.21-.5-.42-1-.64-1.42a48.63,48.63,0,0,0,25.32-30A139.23,139.23,0,0,1,400,329.36Zm0,135.77a162.67,162.67,0,0,0,16.53,10.45,206.69,206.69,0,0,0-15,14.3L400,491.43l-1.51-1.55a206.69,206.69,0,0,0-15-14.3A162.67,162.67,0,0,0,400,465.13Z" transform="translate(-224.09 -268.67)"/><path class="cls-6" d="M400,531.33c6.18-6,13.23-12.74,25.19-19a128.82,128.82,0,0,1-16.64-11.52l-4.75,5c2.63,2.15,5.55,4.65,7.78,6.25A103.2,103.2,0,0,0,400,521.41a103.2,103.2,0,0,0-11.58-9.28c2.23-1.6,5.15-4.1,7.78-6.25l-4.75-5a128.82,128.82,0,0,1-16.64,11.52C386.77,518.59,393.82,525.3,400,531.33Z" transform="translate(-224.09 -268.67)"/><path class="cls-7" d="M425.72,318.34c5.61-13.95,8.79-19.21,18.36-31.75-2.57,1.43-6.35,2.26-11.17,2.47a7.4,7.4,0,0,1,1,3.66,7.25,7.25,0,1,1-10.37-6.62,10.85,10.85,0,0,1-1.88-5.27,11.32,11.32,0,0,1-4.71,3.59,6.92,6.92,0,0,1,1.55,4.6,8.81,8.81,0,1,1-17.61,0c0-2.83.49-7.25,5.83-11.15-3.73-2.72-5.48-6.45-6.69-9.2-1.21,2.75-3,6.48-6.69,9.2,5.34,3.9,5.83,8.32,5.83,11.15a8.81,8.81,0,1,1-17.61,0,7,7,0,0,1,1.54-4.6,11.35,11.35,0,0,1-4.7-3.59,11,11,0,0,1-1.88,5.27,7.28,7.28,0,1,1-9.4,3c-4.82-.21-8.6-1-11.17-2.47,9.57,12.54,12.75,17.8,18.36,31.75C390.06,315.54,409.05,315.15,425.72,318.34Z" transform="translate(-224.09 -268.67)"/><path class="cls-8" d="M447.35,363.31l-.6-.35c-15.82-9.5-22.44-27-22.5-27.16l-.16-.43-.44-.1A124.33,124.33,0,0,0,400,333.42a126,126,0,0,0-23.65,1.85l-.44.1-.16.43c-.06.17-6.68,17.66-22.5,27.16l-.59.35.24.66c.05.13,4.8,13.09,3.87,39v.16l.06.16c.1.28,10.69,27.75,42.77,46.61l.41.25.41-.25c32.08-18.86,42.67-46.33,42.77-46.61l.06-.16V403c-.93-25.9,3.82-38.86,3.87-39ZM429.59,414.7h-6.36a49.54,49.54,0,0,1-5-.15c-3.94-.37-5.91-2-9.06-4.82s-17.6-20-19.13-22.16l-.8-1.12h-.37v6.75c0,6.82,0,12.68.22,15.86.15,2.08.8,3.71,2.63,4a29.91,29.91,0,0,0,3.58.29c.58,0,.95.23.95.6,0,.52-.59.74-1.39.74-4.09,0-8.69-.22-10.52-.22s-6.28.22-9.2.22c-1,0-1.46-.22-1.46-.74,0-.37.29-.6,1.17-.6a11.77,11.77,0,0,0,2.63-.29c1.46-.3,1.82-1.93,2.12-4.08.36-3.11.36-9,.36-15.79V380.15c0-11.27,0-13.34-.15-15.71s-.73-3.71-3.14-4.23a14.63,14.63,0,0,0-2.85-.22c-.8,0-1.24-.15-1.24-.67s.51-.67,1.61-.67c3.87,0,8.47.23,10.22.23s6.36-.23,8.84-.23c1,0,1.54.15,1.54.67s-.44.67-1,.67a10.53,10.53,0,0,0-2,.22c-2,.37-2.56,1.63-2.7,4.23-.15,2.37-.15,4.44-.15,15.71v3.26h.37c2.48-2.74,13.14-13.78,15.26-16.3s3.65-4.3,3.65-5.56c0-.82-.29-1.34-1-1.49s-.95-.29-.95-.74.37-.67,1.17-.67c1.53,0,5.55.23,7.52.23,2.27,0,6.28-.23,8.55-.23.73,0,1.24.15,1.24.67s-.37.67-1.1.67a14.27,14.27,0,0,0-4.23.81,23.34,23.34,0,0,0-7.89,5.56c-2.27,2.23-13.29,13.35-15.78,16,2.63,3.48,16.95,19.12,19.8,21.87,3.21,3.11,6.5,6.45,10.44,8a12.49,12.49,0,0,0,4.53,1.11c.51,0,.95.15.95.6S431,414.7,429.59,414.7Z" transform="translate(-224.09 -268.67)"/></svg>